<svg xmlns="http://www.w3.org/2000/svg" width="24.25" height="24.25"><path id="シェイプ_2" data-name="シェイプ 2" d="M1427.37 4745.63c3.24 0 3.62.01 4.9.07a6.765 6.765 0 012.25.42 3.99 3.99 0 012.3 2.3 6.976 6.976 0 01.42 2.25c.05 1.28.07 1.66.07 4.89s-.02 3.62-.07 4.9a7.041 7.041 0 01-.42 2.25 3.693 3.693 0 01-.91 1.39 3.616 3.616 0 01-1.39.91 6.837 6.837 0 01-2.25.41c-1.28.06-1.66.08-4.9.08s-3.61-.02-4.89-.08a6.837 6.837 0 01-2.25-.41 3.616 3.616 0 01-1.39-.91 3.693 3.693 0 01-.91-1.39 6.765 6.765 0 01-.42-2.25c-.06-1.28-.07-1.66-.07-4.9s.01-3.61.07-4.89a6.705 6.705 0 01.42-2.25 3.99 3.99 0 012.3-2.3 6.765 6.765 0 012.25-.42c1.28-.06 1.66-.07 4.89-.07m0-2.18c-3.29 0-3.7.01-4.99.07a8.907 8.907 0 00-2.94.56 6.04 6.04 0 00-2.15 1.4 5.8 5.8 0 00-1.39 2.15 8.878 8.878 0 00-.57 2.94c-.06 1.29-.07 1.7-.07 4.99s.01 3.71.07 5a8.878 8.878 0 00.57 2.94 5.763 5.763 0 001.39 2.14 5.908 5.908 0 002.15 1.4 8.878 8.878 0 002.94.57c1.29.05 1.7.07 4.99.07s3.71-.02 5-.07a8.878 8.878 0 002.94-.57 6.173 6.173 0 003.54-3.54 8.878 8.878 0 00.57-2.94c.06-1.29.07-1.71.07-5s-.01-3.7-.07-4.99a8.878 8.878 0 00-.57-2.94 5.925 5.925 0 00-1.39-2.15 6.04 6.04 0 00-2.15-1.4 8.907 8.907 0 00-2.94-.56c-1.29-.06-1.71-.07-5-.07zm0 5.89a6.22 6.22 0 106.23 6.22 6.227 6.227 0 00-6.23-6.22zm0 10.26a4.04 4.04 0 114.04-4.04 4.033 4.033 0 01-4.04 4.04zm6.47-11.96a1.455 1.455 0 101.46 1.46 1.453 1.453 0 00-1.46-1.46z" transform="translate(-1415.25 -4743.44)" fill="#fff" fill-rule="evenodd"/></svg>