<svg id="scroll" xmlns="http://www.w3.org/2000/svg" width="25.75" height="146.719"><defs><style>.cls-2{fill:#fff;fill-rule:evenodd}</style></defs><path id="長方形_9" data-name="長方形 9" d="M15 0h10.75v146.719H15a15 15 0 01-15-15V15A15 15 0 0115 0z" fill="#002331" opacity=".8"/><path id="SCROLL-2" data-name="SCROLL" class="cls-2" d="M13.192 19.311a4.369 4.369 0 00-1.008 1.757 2.985 2.985 0 01-.588 1.077 1.032 1.032 0 01-.756.313.784.784 0 01-.382-.092 1.2 1.2 0 01-.489-1.108 2.1 2.1 0 01.382-1.306 1.744 1.744 0 011.008-.657v-.427H9.708v.367a.709.709 0 01.474.168 1.958 1.958 0 00-.214.306 3.05 3.05 0 00-.351 1.49 2.211 2.211 0 00.5 1.451 1.658 1.658 0 001.352.6 1.433 1.433 0 001.024-.39 3.976 3.976 0 00.81-1.383 5.643 5.643 0 01.771-1.4.956.956 0 01.726-.344.736.736 0 01.649.367 1.718 1.718 0 01.237.947 1.674 1.674 0 01-.328 1.024 1.254 1.254 0 01-.924.5v.4h1.513v-.4a.565.565 0 01-.321-.092 2.079 2.079 0 00.4-1.39 2.6 2.6 0 00-.451-1.558 1.393 1.393 0 00-1.184-.626 1.754 1.754 0 00-1.192.4zM10.9 29.558a3.574 3.574 0 011.895-.458q2.887-.031 2.887 2.047a1.878 1.878 0 01-.39 1.138 1.634 1.634 0 01-1.062.649v.351h1.711v-.335a.794.794 0 01-.443-.168.9.9 0 00.183-.29 2.9 2.9 0 00.336-1.421 3.09 3.09 0 00-.909-2.376 3.239 3.239 0 00-2.3-.848 3.211 3.211 0 00-2.292.848 3 3 0 00-.9 2.3 2.847 2.847 0 00.474 1.681 1.7 1.7 0 00.7.642l.214-.214a2.263 2.263 0 01-.978-2.063 1.636 1.636 0 01.871-1.482zm5.042 7.5h-.321v.672l-5.592-.015v-.66h-.321v2.7h.321v-.943h2.551v.749a1.035 1.035 0 01-.267.741 1.626 1.626 0 01-.611.412 8.13 8.13 0 01-.963.275 1.458 1.458 0 00-.833.42 1.862 1.862 0 00-.214 1.069v.582l.336-.015v-.153a.616.616 0 01.382-.565 3.281 3.281 0 01.558-.183 6.068 6.068 0 00.742-.244 1.6 1.6 0 00.978-1.314 2.125 2.125 0 00.542 1.153 1.507 1.507 0 001.138.435q1.573 0 1.574-2.337v-2.782zm-3.086 1.757h2.765v.871a1.322 1.322 0 01-.336 1.047 1.483 1.483 0 01-.978.283 1.2 1.2 0 01-1.451-1.253v-.951zm-2.781 9.01a3.143 3.143 0 00-.443 1.726 2.874 2.874 0 00.94 2.284 3.336 3.336 0 002.238.787 3.353 3.353 0 002.215-.749 2.9 2.9 0 00.993-2.337 3.009 3.009 0 00-.451-1.673 2.915 2.915 0 00-1.184-1.054 3.5 3.5 0 00-1.558-.359 3.59 3.59 0 00-.81.092 2.918 2.918 0 00-1.94 1.283zm-.107 1.7a1.588 1.588 0 01.947-1.467 4.215 4.215 0 011.933-.428 3.862 3.862 0 011.933.413 1.6 1.6 0 01.9 1.5 1.533 1.533 0 01-.412 1.085 3.469 3.469 0 01-2.613.84 3.218 3.218 0 01-.993-.153 4.325 4.325 0 01-.748-.315 1.62 1.62 0 01-.947-1.482zm-.26 7.115v4.92H11.6v-.321a5.673 5.673 0 01-.6-.092 1.166 1.166 0 01-.978-1.283v-1.253h5.592v.718h.321v-2.49h-.314v.672h-5.592v-.871h-.321zm0 9.3v4.92H11.6v-.321a5.647 5.647 0 01-.6-.092 1.166 1.166 0 01-.978-1.283v-1.253h5.592v.718h.321v-2.49h-.314v.672h-5.592v-.871h-.321z" transform="translate(-.094 -.406)"/><g id="グループ_4" data-name="グループ 4"><path id="長方形_7" data-name="長方形 7" fill="#fff" d="M11.906 78.594h1v45h-1z"/><path id="多角形_1" data-name="多角形 1" class="cls-2" d="M12.5 129.005l-2.5-9.99h5z" transform="translate(-.094 -.406)"/></g></svg>