<svg id="scroll" xmlns="http://www.w3.org/2000/svg" width="24" height="173"><defs><style>.cls-2{fill-rule:evenodd;fill:#fff}</style></defs><path id="長方形_9" data-name="長方形 9" d="M2617.99 581h9v173h-9a15 15 0 01-15-15V596a15 15 0 0115-15z" transform="translate(-2603 -581)" fill-rule="evenodd" fill="#002331" opacity=".8"/><g id="グループ_5" data-name="グループ 5"><path id="SCROLL-2" data-name="SCROLL" class="cls-2" d="M2615.78 606.589a6.231 6.231 0 00-1.47 2.556 4.291 4.291 0 01-.86 1.566 1.492 1.492 0 01-1.1.456 1.131 1.131 0 01-.55-.134 1.734 1.734 0 01-.71-1.611 3.064 3.064 0 01.55-1.9 2.536 2.536 0 011.47-.955v-.622h-2.4v.533a1.042 1.042 0 01.69.244 2.338 2.338 0 00-.31.445 4.445 4.445 0 00-.51 2.166 3.225 3.225 0 00.72 2.112 2.4 2.4 0 001.96.877 2.078 2.078 0 001.49-.566 5.709 5.709 0 001.18-2.011 8.559 8.559 0 011.12-2.034 1.41 1.41 0 011.06-.5 1.063 1.063 0 01.94.534 2.492 2.492 0 01.35 1.377 2.427 2.427 0 01-.48 1.489 1.833 1.833 0 01-1.34.734v.577h2.2v-.577a.819.819 0 01-.47-.134 3.051 3.051 0 00.58-2.022 3.764 3.764 0 00-.66-2.267 2.029 2.029 0 00-1.72-.911 2.538 2.538 0 00-1.73.578zm-3.34 11.778a5.224 5.224 0 012.76-.667q4.2-.045 4.2 2.978a2.719 2.719 0 01-.57 1.655 2.374 2.374 0 01-1.54.945v.511h2.49v-.489a1.157 1.157 0 01-.65-.244 1.483 1.483 0 00.27-.423 4.283 4.283 0 00.49-2.066 4.467 4.467 0 00-1.33-3.456 5.127 5.127 0 00-6.67 0 4.349 4.349 0 00-1.31 3.345 4.133 4.133 0 00.68 2.444 2.482 2.482 0 001.03.933l.31-.311a3.285 3.285 0 01-1.42-3 2.381 2.381 0 011.26-2.155zm7.34 8.778h-.47v.977l-8.13-.022v-.955h-.47v3.933h.47V629.7h3.71v1.089a1.5 1.5 0 01-.39 1.078 2.4 2.4 0 01-.89.6 11.809 11.809 0 01-1.4.4 2.086 2.086 0 00-1.21.611 2.69 2.69 0 00-.31 1.555v.845l.49-.022v-.223a.893.893 0 01.55-.822 4.906 4.906 0 01.81-.266 9.3 9.3 0 001.08-.356 2.322 2.322 0 001.42-1.911 3.092 3.092 0 00.79 1.678 2.2 2.2 0 001.66.633c1.52 0 2.29-1.133 2.29-3.4v-4.044zm-4.49 2.555h4.02v1.267a1.907 1.907 0 01-.49 1.522 2.162 2.162 0 01-1.42.411c-1.41 0-2.11-.608-2.11-1.822V629.7zm-4.05 10.978a4.561 4.561 0 00-.64 2.511 4.181 4.181 0 001.36 3.322 5.258 5.258 0 006.48.056 4.227 4.227 0 001.45-3.4 4.354 4.354 0 00-.66-2.434 4.262 4.262 0 00-1.72-1.533 5.1 5.1 0 00-2.27-.522 5.265 5.265 0 00-1.18.133 4.256 4.256 0 00-2.82 1.867zm-.15 2.467a2.317 2.317 0 011.37-2.134 6.186 6.186 0 012.82-.622 5.644 5.644 0 012.81.6 2.33 2.33 0 011.31 2.178 2.231 2.231 0 01-.6 1.578 5.052 5.052 0 01-3.8 1.222 4.72 4.72 0 01-1.45-.222 6.449 6.449 0 01-1.09-.445 2.362 2.362 0 01-1.37-2.155zm-.38 7.777v7.156h2.75v-.467a8.367 8.367 0 01-.86-.133 1.693 1.693 0 01-1.42-1.867v-1.822h8.13v1.044h.47v-3.622h-.47v.978h-8.13v-1.267h-.47zm0 10.4v7.156h2.75v-.467a8.367 8.367 0 01-.86-.133 1.693 1.693 0 01-1.42-1.867v-1.822h8.13v1.044h.47v-3.622h-.47v.978h-8.13v-1.267h-.47z" transform="translate(-2603 -581)"/><g id="グループ_4" data-name="グループ 4"><path id="長方形_7" data-name="長方形 7" fill="#fff" d="M11 99h2v45h-2z"/><path id="多角形_1" data-name="多角形 1" class="cls-2" d="M2615 738.007l-4-14.017h8z" transform="translate(-2603 -581)"/></g></g></svg>